<svg xmlns="http://www.w3.org/2000/svg" class="h-full w-auto" viewBox="0 0 50.95 39.57" fill="none"><path d="M9.23375 39.4808V36.855C9.23375 35.8507 8.62173 35.1928 7.57154 35.1928C7.04613 35.1928 6.47487 35.366 6.08256 35.9373C5.77687 35.4577 5.33743 35.1928 4.68019 35.1928C4.24139 35.1928 3.80323 35.3253 3.45614 35.8042V35.2794H2.53906V39.4808H3.45614V37.1613C3.45614 36.4162 3.84909 36.0646 4.46111 36.0646C5.0725 36.0646 5.37819 36.4576 5.37819 37.1613V39.4808H6.29654V37.1613C6.29654 36.4162 6.73471 36.0646 7.30088 36.0646C7.91226 36.0646 8.21859 36.4576 8.21859 37.1613V39.4808H9.23375ZM22.8479 35.2794H21.359V34.0101H20.4412V35.2794H19.6101V36.1105H20.4412V38.0383C20.4412 39.0019 20.8335 39.568 21.8844 39.568C22.2767 39.568 22.7155 39.4349 23.0212 39.2623L22.7562 38.4713C22.4907 38.6446 22.185 38.6904 21.9659 38.6904C21.5271 38.6904 21.3539 38.4255 21.3539 37.9924V36.1099H22.8428V35.2788L22.8479 35.2794ZM30.6387 35.1877C30.1139 35.1877 29.7617 35.4526 29.5433 35.7991V35.2743H28.6249V39.4763H29.5426V37.1097C29.5426 36.4111 29.8483 36.0131 30.4196 36.0131C30.5928 36.0131 30.8125 36.0589 30.9908 36.0997L31.2558 35.2227C31.0724 35.1871 30.8125 35.1871 30.6393 35.1871L30.6387 35.1877ZM18.8656 35.6265C18.4268 35.3208 17.8148 35.1877 17.1576 35.1877C16.1068 35.1877 15.4081 35.7131 15.4081 36.5442C15.4081 37.2428 15.9335 37.6402 16.8512 37.7676L17.29 37.8135C17.769 37.9001 18.0345 38.0332 18.0345 38.2523C18.0345 38.558 17.6824 38.7777 17.0703 38.7777C16.5689 38.7802 16.0791 38.6268 15.6686 38.3389L15.2298 39.0375C15.7094 39.3891 16.3672 39.5629 17.0245 39.5629C18.2485 39.5629 18.9523 38.9917 18.9523 38.2064C18.9523 37.4619 18.381 37.0696 17.5091 36.9365L17.0703 36.8907C16.678 36.8448 16.3723 36.7582 16.3723 36.4983C16.3723 36.1927 16.678 36.0188 17.162 36.0188C17.6874 36.0188 18.2129 36.2379 18.4778 36.371L18.8656 35.6258V35.6265ZM43.2842 35.1877C42.7594 35.1877 42.4072 35.4526 42.1881 35.7991V35.2743H41.2704V39.4763H42.1881V37.1097C42.1881 36.4111 42.4938 36.0131 43.0651 36.0131C43.2383 36.0131 43.458 36.0589 43.6364 36.0997L43.9013 35.2335C43.723 35.1871 43.4631 35.1877 43.2842 35.1877ZM31.557 37.3804C31.557 38.6497 32.434 39.568 33.7899 39.568C34.4019 39.568 34.8407 39.4349 35.2788 39.0885L34.8407 38.344C34.4885 38.6089 34.142 38.7369 33.744 38.7369C32.9995 38.7369 32.4747 38.2115 32.4747 37.3804C32.4747 36.5901 32.9995 36.0646 33.744 36.0239C34.1369 36.0239 34.4891 36.1564 34.8407 36.4168L35.2788 35.6717C34.8407 35.3202 34.4019 35.1928 33.7899 35.1928C32.4333 35.1877 31.557 36.1105 31.557 37.3804ZM40.0464 37.3804V35.2794H39.1293V35.8048C38.823 35.4119 38.3842 35.1934 37.8135 35.1934C36.6303 35.1934 35.7119 36.1105 35.7119 37.3804C35.7119 38.6497 36.6303 39.568 37.8135 39.568C38.4249 39.568 38.8637 39.3483 39.1287 38.956V39.4814H40.0464V37.3804ZM36.6761 37.3804C36.6761 36.6353 37.1557 36.0239 37.946 36.0239C38.6905 36.0239 39.2153 36.5952 39.2153 37.3804C39.2153 38.1249 38.6905 38.7369 37.946 38.7369C37.1608 38.6904 36.6761 38.1192 36.6761 37.3804ZM25.6928 35.1877C24.4694 35.1877 23.5924 36.0646 23.5924 37.3753C23.5924 38.6911 24.4694 39.5629 25.7386 39.5629C26.3507 39.5629 26.9627 39.3891 27.4473 38.9917L27.0079 38.3338C26.657 38.5987 26.2182 38.7726 25.7851 38.7726C25.2139 38.7726 24.6477 38.507 24.5152 37.7676H27.6206V37.4161C27.6613 36.0646 26.871 35.1877 25.6928 35.1877ZM25.6928 35.978C26.2641 35.978 26.657 36.3296 26.7436 36.9824H24.556C24.6426 36.4168 25.0349 35.978 25.6928 35.978ZM48.4956 37.3804V33.6172H47.5779V35.8048C47.2722 35.4119 46.8328 35.1934 46.2621 35.1934C45.0795 35.1934 44.1618 36.1105 44.1618 37.3804C44.1618 38.6497 45.0789 39.568 46.2621 39.568C46.8735 39.568 47.313 39.3483 47.5779 38.956V39.4814H48.495V37.3798L48.4956 37.3804ZM45.1253 37.3804C45.1253 36.6353 45.6043 36.0239 46.3946 36.0239C47.1397 36.0239 47.6645 36.5952 47.6645 37.3804C47.6645 38.1249 47.1391 38.7369 46.3946 38.7369C45.6049 38.6904 45.1253 38.1192 45.1253 37.3804ZM14.3987 37.3804V35.2794H13.4816V35.8048C13.1759 35.4119 12.7371 35.1934 12.1659 35.1934C10.9832 35.1934 10.0655 36.1105 10.0655 37.3804C10.0655 38.6497 10.9826 39.568 12.1659 39.568C12.7779 39.568 13.2167 39.3483 13.4816 38.956V39.4814H14.3993V37.3798L14.3987 37.3804ZM10.9877 37.3804C10.9877 36.6353 11.4666 36.0239 12.2569 36.0239C13.0021 36.0239 13.5268 36.5952 13.5268 37.3804C13.5268 38.1249 13.0014 38.7369 12.2569 38.7369C11.4672 38.6904 10.9877 38.1192 10.9877 37.3804Z" fill="#474747"></path><path d="M32.3505 3.37012H18.5625V28.1408H32.3505V3.37012Z" fill="#FF5A00"></path><path d="M19.4778 15.7559C19.4778 10.7235 21.8437 6.25653 25.4745 3.37027C22.8028 1.2699 19.4319 0 15.7559 0C7.04687 0 0 7.04687 0 15.7559C0 24.465 7.04687 31.5119 15.7559 31.5119C19.4319 31.5119 22.8028 30.242 25.4745 28.141C21.8386 25.2961 19.4778 20.7884 19.4778 15.7559Z" fill="#EB001B"></path><path d="M50.9471 15.756C50.9471 24.465 43.9002 31.5119 35.1912 31.5119C31.5152 31.5119 28.1443 30.242 25.4727 28.141C29.1493 25.2496 31.4693 20.7884 31.4693 15.756C31.4693 10.7235 29.1034 6.25653 25.4727 3.37028C28.2383 1.18471 31.661 -0.00287225 35.1861 5.21671e-06C43.9002 5.21671e-06 50.9471 7.09273 50.9471 15.756Z" fill="#F79E1B"></path></svg>