<svg xmlns="http://www.w3.org/2000/svg" class="h-full w-auto" viewBox="0 0 63.69 20.61" fill="none"><path d="M27.5961 20.3145H22.4375L25.6638 0.362305H30.8224L27.5961 20.3145Z" fill="#363636"></path><path d="M46.2982 0.849642C45.2805 0.445872 43.6667 6.94018e-05 41.6707 6.94018e-05C36.5758 6.94018e-05 32.9884 2.71692 32.9668 6.60114C32.9241 9.46701 35.5352 11.0585 37.4885 12.0145C39.4838 12.9901 40.1627 13.6276 40.1627 14.4982C40.1423 15.8344 38.5495 16.4508 37.0643 16.4508C35.0047 16.4508 33.901 16.133 32.2242 15.3892L31.5446 15.0708L30.8224 19.5492C32.0325 20.1007 34.2615 20.5898 36.5765 20.6115C41.9898 20.6115 45.5136 17.9366 45.5556 13.797C45.576 11.526 44.1972 9.78608 41.2249 8.36333C39.4207 7.45071 38.3151 6.83486 38.3151 5.90123C38.3368 5.05165 39.25 4.1817 41.2867 4.1817C42.9642 4.13967 44.1965 4.5428 45.1302 4.94593L45.5964 5.15801L46.2982 0.849642Z" fill="#363636"></path><path d="M53.1582 13.2457C53.583 12.0993 55.2178 7.66358 55.2178 7.66358C55.1962 7.70625 55.6413 6.49621 55.8967 5.753L56.2572 7.47252C56.2572 7.47252 57.2341 12.249 57.4462 13.2457H53.1582ZM59.5262 0.361965H55.5356C54.3052 0.361965 53.3703 0.722429 52.8391 2.0178L45.1758 20.3142H50.5891C50.5891 20.3142 51.4807 17.8515 51.6718 17.3209H58.2958C58.4441 18.0215 58.9116 20.3142 58.9116 20.3142H63.6881L59.5262 0.361965Z" fill="#363636"></path><path d="M18.1259 0.362305L13.0737 13.9682L12.5215 11.2087C11.5879 8.02438 8.65832 4.56495 5.38867 2.84543L10.0167 20.2935H15.4727L23.5813 0.362305H18.1259Z" fill="#363636"></path><path d="M8.38555 0.362305H0.0847025L0 0.765438C6.47497 2.42128 10.763 6.41249 12.5245 11.21L10.7203 2.03916C10.4235 0.765438 9.51025 0.404338 8.38555 0.362305Z" fill="#FAA61A"></path></svg>