<svg xmlns="http://www.w3.org/2000/svg" class="h-full w-auto" viewBox="0 0 63.69 26.16" fill="none"><path d="M11.6366 3.37191C10.8908 4.25598 9.69587 4.95278 8.50226 4.85342C8.35322 3.65917 8.93792 2.38977 9.62198 1.60507C10.3685 0.696803 11.6742 0.0496807 12.7315 0C12.8557 1.24456 12.371 2.46429 11.6366 3.37255V3.37191ZM12.7194 5.08972C10.9901 4.98972 9.50925 6.0725 8.68824 6.0725C7.85514 6.0725 6.59911 5.1394 5.22971 5.16424C3.45139 5.18908 1.79665 6.19734 0.888381 7.80241C-0.977828 11.0132 0.403676 15.7672 2.20683 18.3812C3.09025 19.6754 4.14756 21.0945 5.54117 21.0442C6.85961 20.9945 7.3819 20.1856 8.97423 20.1856C10.5793 20.1856 11.0398 21.0442 12.4328 21.0194C13.876 20.9939 14.7843 19.7251 15.6671 18.4309C16.6747 16.9621 17.0855 15.5309 17.1104 15.4564C17.0855 15.4309 14.3238 14.3736 14.299 11.1877C14.2735 8.52469 16.476 7.25529 16.5754 7.18013C15.3314 5.33812 13.3907 5.1394 12.7187 5.08972H12.7194ZM22.7084 1.48023V20.8824H25.7192V14.2494H29.8866C33.6929 14.2494 36.3674 11.6355 36.3674 7.85209C36.3674 4.06872 33.7439 1.48023 29.986 1.48023H22.7084ZM25.7192 4.01904H29.1898C31.8018 4.01904 33.2948 5.41328 33.2948 7.86483C33.2948 10.317 31.8018 11.7227 29.1771 11.7227H25.7185L25.7192 4.01904ZM41.866 21.0315C43.757 21.0315 45.5112 20.0735 46.3073 18.5551H46.3691V20.8824H49.1563V11.2246C49.1563 8.42469 46.9169 6.62027 43.4711 6.62027C40.2737 6.62027 37.9107 8.44953 37.8234 10.9641H40.5348C40.759 9.76862 41.866 8.98519 43.3838 8.98519C45.2245 8.98519 46.2576 9.84377 46.2576 11.4246V12.4947L42.5004 12.7182C39.0049 12.9297 37.1139 14.3615 37.1139 16.85C37.1139 19.364 39.0673 21.0315 41.866 21.0315ZM42.6749 18.7296C41.0698 18.7296 40.0501 17.9576 40.0501 16.7755C40.0501 15.5558 41.0329 14.8469 42.9112 14.7348L46.2576 14.5227V15.6182C46.2576 17.4354 44.715 18.7296 42.6749 18.7296ZM52.8754 26.1588C55.8116 26.1588 57.1925 25.0384 58.3988 21.641L63.686 6.80752H60.6255L57.081 18.2685H57.0186L53.4734 6.80625H50.3257L55.4263 20.9315L55.1524 21.7901C54.6925 23.2461 53.946 23.8066 52.6149 23.8066C52.3792 23.8066 51.9181 23.7811 51.7321 23.7569V26.0836C51.906 26.1339 52.6518 26.1588 52.8754 26.1588Z" fill="#363636"></path></svg>