<svg xmlns="http://www.w3.org/2000/svg" class="h-full w-auto" viewBox="0 0 63.69 25.31" fill="none"><path d="M30.1043 12.3394V19.7406H27.7168V1.43652H33.9243C35.4364 1.43652 36.8689 1.9936 37.983 3.02818C39.0972 3.98318 39.6543 5.41567 39.6543 6.92775C39.6543 8.43983 39.0972 9.79274 37.983 10.8273C36.8689 11.8619 35.5159 12.419 33.9243 12.419L30.1043 12.3394ZM30.1043 3.66485V10.0315H34.0834C34.9589 10.0315 35.8343 9.71316 36.3914 9.07649C37.6647 7.88275 37.6647 5.89317 36.4709 4.69943L36.3914 4.61984C35.7547 3.98318 34.9589 3.58526 34.0834 3.66485H30.1043Z" fill="#363636"></path><path d="M45.1436 6.84863C46.8944 6.84863 48.2473 7.32613 49.2819 8.28113C50.3165 9.23612 50.794 10.5095 50.794 12.1011V19.7411H48.5657V17.9903H48.4861C47.5311 19.4227 46.1782 20.139 44.5865 20.139C43.2336 20.139 42.0398 19.7411 41.0848 18.9452C40.2094 18.1494 39.6524 17.0353 39.6524 15.8415C39.6524 14.5682 40.1299 13.5336 41.0848 12.7378C42.0398 11.9419 43.3928 11.6236 44.9844 11.6236C46.4169 11.6236 47.5311 11.8624 48.4065 12.4194V11.8624C48.4065 11.0665 48.0882 10.2707 47.4515 9.7932C46.8156 9.22817 45.9942 8.91661 45.1436 8.91779C43.7907 8.91779 42.7561 9.47487 42.0398 10.589L39.9707 9.31571C41.244 7.64446 42.9153 6.84863 45.1436 6.84863ZM42.1194 15.9211C42.1194 16.5578 42.4378 17.1148 42.9153 17.4332C43.4723 17.8311 44.109 18.0698 44.7457 18.0698C45.7007 18.0698 46.6557 17.6719 47.3719 16.9557C48.1677 16.2394 48.5657 15.364 48.5657 14.409C47.8494 13.8519 46.8148 13.5336 45.4619 13.5336C44.5069 13.5336 43.7111 13.7724 43.0744 14.2499C42.4378 14.6478 42.1194 15.2048 42.1194 15.9211Z" fill="#363636"></path><path d="M63.6859 7.24609L55.8072 25.3114H53.4197L56.3643 19.0244L51.1914 7.32568H53.7381L57.4785 16.3186H57.5581L61.2189 7.32568H63.6859V7.24609Z" fill="#363636"></path><path d="M20.6324 10.7484C20.6324 10.0321 20.5529 9.31586 20.4733 8.59961H10.5254V12.6583H16.1758C15.937 13.9317 15.2208 15.1254 14.1066 15.8417V18.4679H17.5287C19.5183 16.6375 20.6324 13.9317 20.6324 10.7484Z" fill="#4285F4"></path><path d="M10.5236 21.0144C13.3886 21.0144 15.7761 20.0594 17.5269 18.4677L14.1049 15.8415C13.1499 16.4782 11.9561 16.8761 10.5236 16.8761C7.8178 16.8761 5.43031 15.0457 4.63448 12.499H1.13282V15.2048C2.96323 18.7861 6.54447 21.0144 10.5236 21.0144Z" fill="#34A853"></path><path d="M4.63571 12.4988C4.15821 11.2255 4.15821 9.79298 4.63571 8.44007V5.73424H1.13406C-0.378019 8.67882 -0.378019 12.1805 1.13406 15.2046L4.63571 12.4988Z" fill="#FBBC04"></path><path d="M10.5241 4.1426C12.0362 4.1426 13.4687 4.69968 14.5828 5.73426L17.607 2.7101C15.697 0.959278 13.1504 -0.0753013 10.6037 0.00428168C6.62455 0.00428168 2.96373 2.23261 1.2129 5.81384L4.71455 8.51966C5.4308 5.97301 7.81829 4.1426 10.5241 4.1426Z" fill="#EA4335"></path></svg>